<?xml version="1.0" standalone="no"?>
<!DOCTYPE svg PUBLIC "-//W3C//DTD SVG 20010904//EN"
 "http://www.w3.org/TR/2001/REC-SVG-20010904/DTD/svg10.dtd">
<svg version="1.0" xmlns="http://www.w3.org/2000/svg"
 width="1563.000000pt" height="1563.000000pt" viewBox="0 0 1563.000000 1563.000000"
 preserveAspectRatio="xMidYMid meet">

<g transform="translate(0.000000,1563.000000) scale(0.100000,-0.100000)"
fill="#000000" stroke="none">
<path d="M7833 10581 c-15 -4 -82 -94 -214 -291 -105 -157 -316 -469 -467
-695 -152 -225 -361 -537 -466 -693 l-191 -284 -3 171 -2 171 -180 0 -180 0 0
-443 0 -443 -148 -219 c-81 -121 -273 -407 -426 -635 -302 -449 -637 -947
-833 -1238 -75 -111 -123 -193 -123 -208 0 -36 29 -43 193 -45 138 -3 146 -2
198 24 65 32 108 74 144 144 24 48 27 61 24 138 -4 85 -4 86 21 91 101 21 171
73 218 161 28 54 31 65 29 145 -1 47 1 84 6 81 4 -2 7 1 7 6 0 6 9 11 21 11
36 0 127 50 160 87 52 60 83 138 82 208 -1 33 -4 67 -8 77 -5 12 1 18 27 23
157 34 255 163 246 322 l-5 71 46 12 c100 24 196 117 222 214 6 22 9 72 7 110
l-3 71 1622 3 1621 2 -5 -73 c-4 -55 -1 -87 11 -125 32 -97 119 -179 214 -201
l47 -12 0 -92 c0 -99 9 -125 66 -198 29 -37 127 -93 182 -104 26 -5 28 -8 21
-37 -31 -143 58 -303 192 -344 32 -10 61 -22 62 -26 2 -5 7 -6 10 -4 4 2 7
-39 7 -92 0 -88 3 -101 28 -144 49 -82 139 -144 215 -150 18 -1 32 -3 32 -5 0
-1 -5 -24 -11 -52 -8 -40 -7 -62 5 -110 27 -104 77 -165 172 -212 45 -21 59
-23 199 -20 166 2 202 13 189 54 -4 12 -71 116 -149 232 -78 115 -261 388
-407 605 -146 217 -383 571 -528 785 -144 215 -354 527 -467 695 -112 168
-313 467 -446 665 -134 198 -400 594 -592 880 -630 938 -624 930 -648 936 -12
3 -32 3 -44 0z m105 -764 c44 -46 95 -74 149 -83 l40 -6 -1 -92 c0 -106 11
-138 74 -209 49 -55 101 -85 164 -93 42 -6 44 -8 35 -31 -14 -38 -11 -115 8
-173 31 -96 153 -200 236 -200 l28 0 -6 -62 c-4 -35 -8 -68 -10 -75 -2 -7 0
-15 5 -18 6 -4 10 -14 10 -23 0 -27 39 -93 78 -135 44 -46 103 -79 157 -87 34
-4 39 -9 35 -25 -3 -11 -5 -54 -5 -95 1 -93 22 -137 98 -207 49 -45 146 -91
166 -79 3 2 6 -39 6 -92 0 -75 4 -105 18 -130 10 -19 16 -37 12 -40 -8 -9
-2751 -9 -2759 -1 -4 3 3 28 15 54 18 40 21 62 17 130 l-4 82 27 1 c38 1 122
46 163 86 18 19 46 60 61 91 26 51 27 63 22 140 l-5 85 30 0 c49 0 140 55 182
109 53 71 70 128 63 217 l-5 74 29 0 c70 0 174 81 221 170 19 38 23 59 23 138
l-1 92 26 0 c45 0 124 45 170 97 62 69 84 135 77 228 l-5 73 40 6 c88 14 176
88 214 178 l19 47 23 -52 c13 -29 40 -69 60 -90z"/>
<path d="M7559 8779 c-65 -38 -69 -54 -69 -271 0 -216 6 -237 72 -278 31 -19
47 -20 305 -18 l273 3 37 38 38 37 3 206 c3 193 2 207 -18 238 -38 62 -58 66
-347 66 -243 0 -260 -2 -294 -21z m549 -85 c21 -15 22 -21 22 -189 0 -168 -1
-174 -22 -189 -19 -13 -61 -16 -255 -16 -220 0 -234 1 -253 20 -18 18 -20 33
-20 185 0 152 2 167 20 185 19 19 33 20 253 20 194 0 236 -3 255 -16z"/>
<path d="M6066 9400 c-14 -17 -31 -50 -37 -73 -16 -61 -7 -173 19 -224 31 -59
57 -65 285 -61 l189 3 28 32 c71 79 58 301 -19 343 -12 6 -104 10 -229 10
l-210 0 -26 -30z"/>
<path d="M7660 7351 c-254 -80 -479 -338 -525 -601 -25 -144 -37 -131 122
-128 l137 3 17 70 c9 39 22 83 29 99 20 54 99 163 145 200 47 39 153 91 195
97 l25 4 3 138 3 137 -48 -1 c-26 0 -73 -9 -103 -18z"/>
<path d="M7892 7234 l3 -137 60 -16 c76 -21 158 -74 213 -136 42 -48 109 -171
115 -210 1 -11 5 -25 9 -30 3 -6 9 -27 13 -48 l7 -37 132 0 c73 0 135 2 138 5
6 6 -17 170 -30 210 -14 42 -83 174 -119 226 -60 86 -188 200 -273 243 -68 34
-178 66 -229 66 l-42 0 3 -136z"/>
<path d="M6389 6780 c-115 -20 -246 -121 -305 -235 -59 -114 -65 -159 -62
-465 l3 -275 430 0 430 0 3 278 c3 307 -3 347 -60 460 -81 162 -273 266 -439
237z m175 -214 c51 -30 78 -59 108 -116 22 -42 23 -58 26 -256 l3 -211 -47 -7
c-60 -8 -323 -8 -392 1 l-54 6 4 211 3 211 30 54 c71 128 206 174 319 107z"/>
<path d="M9189 6780 c-115 -20 -246 -121 -305 -235 -59 -114 -65 -159 -62
-465 l3 -275 430 0 430 0 3 285 c3 313 0 332 -60 454 -81 161 -274 265 -439
236z m159 -204 c52 -27 92 -67 120 -120 26 -50 27 -55 30 -262 l3 -211 -47 -7
c-60 -8 -323 -8 -391 0 l-53 7 0 193 c0 168 3 200 20 246 42 113 137 183 236
174 29 -2 65 -11 82 -20z"/>
<path d="M7115 6527 c-3 -7 -4 -125 -3 -262 l3 -250 138 -3 137 -3 0 266 0
265 -135 0 c-100 0 -137 -3 -140 -13z"/>
<path d="M8312 6278 l3 -263 138 -3 137 -3 1 141 c0 77 0 165 0 195 0 30 0 87
0 125 l-1 70 -140 0 -140 0 2 -262z"/>
<path d="M7110 5700 l0 -230 -54 0 c-30 0 -285 12 -568 26 -321 16 -636 26
-843 27 -355 1 -386 -2 -860 -72 -110 -16 -255 -33 -323 -37 -93 -5 -129 -11
-144 -24 -12 -9 -18 -22 -14 -28 5 -9 869 -12 3547 -12 3496 0 3539 0 3539 19
0 11 -6 23 -12 28 -7 4 -83 13 -168 20 -85 6 -231 23 -325 38 -431 65 -478 69
-830 68 -205 -1 -525 -11 -843 -27 -283 -14 -538 -26 -568 -26 l-54 0 0 230 0
230 -140 0 -140 0 0 -230 0 -230 -460 0 -460 0 0 230 0 230 -140 0 -140 0 0
-230z"/>
</g>
</svg>
